<svg width="800" height="800" viewBox="0 0 800 800" fill="none" xmlns="http://www.w3.org/2000/svg">
<g clip-path="url(#clip0_174_5)">
<path fill-rule="evenodd" clip-rule="evenodd" d="M400 800C179.086 800 0 620.915 0 400C0 179.086 179.086 0 400 0C620.915 0 800 179.086 800 400C800 620.915 620.915 800 400 800ZM221.625 309.561C221.625 288.645 228.741 267.453 242.975 245.987C257.208 224.52 277.975 206.742 305.275 192.651C332.575 178.56 364.424 171.516 400.824 171.516C434.657 171.516 464.525 177.405 490.425 189.184C516.325 200.963 536.335 216.98 550.45 237.236C564.565 257.491 571.625 279.508 571.625 303.286C571.625 322.001 567.6 338.402 559.55 352.493C551.5 366.584 541.935 378.749 530.85 388.986C519.765 399.224 499.875 416.452 471.174 440.671C463.241 447.496 456.883 453.494 452.099 458.668C447.316 463.842 443.758 468.576 441.424 472.87C422.14 517.34 338.509 512.32 354.625 450.082C360.691 436.542 368.741 424.653 378.775 414.415C388.808 404.177 402.34 392.013 419.374 377.922C434.307 365.592 445.1 356.291 451.75 350.017C458.4 343.742 464 336.751 468.55 329.045C473.1 321.339 475.374 312.973 475.374 303.946C475.374 286.332 468.433 271.472 454.55 259.363C440.667 247.253 422.757 241.198 400.824 241.198C375.157 241.198 356.257 247.308 344.124 259.527C331.99 271.747 321.724 289.745 313.324 313.524C305.39 338.403 290.341 350.842 268.174 350.842C255.108 350.842 244.083 346.494 235.1 337.798C226.116 329.101 221.625 319.689 221.625 309.561ZM400 650C372.385 650 350 627.615 350 600C350 572.385 372.385 550 400 550C427.614 550 450 572.385 450 600C450 627.615 427.614 650 400 650Z" fill="black"/>
</g>
<defs>
<clipPath id="clip0_174_5">
<rect width="800" height="800" fill="white"/>
</clipPath>
</defs>
</svg>
